<svg xmlns="http://www.w3.org/2000/svg" width="300" height="300" viewBox="0 0 300 300"><path d="M98 242L55 153q-8-21 11-28 14-5 24 14l22 41-10-90q-2-21 18-23 18 0 20 20l9 67 3-91q1-20 21-19 18 2 17 22l-5 91 25-69q8-19 26-10 15 8 7 26l-34 77q-17 38-56 62z" fill="#c8ff3d" stroke="#111" stroke-width="10" stroke-linejoin="round"/><path d="M48 100l-18-15M67 77L55 54M232 93l18-17M247 120l24-6M245 148l24 6" fill="none" stroke="#111" stroke-width="10" stroke-linecap="round"/><path d="M114 215q32 19 65-8" fill="none" stroke="#111" stroke-width="10" stroke-linecap="round"/></svg>
