<svg xmlns="http://www.w3.org/2000/svg" width="300" height="300" viewBox="0 0 300 300"><path d="M150 38l22 46 40-30 1 51 51-2-29 40 46 23-46 20 28 42-51-5-3 50-39-30-25 45-22-46-40 30 1-51-51 2 29-40-46-23 46-20-28-42 51 5 3-50 39 30z" fill="#ff6b57" stroke="#111" stroke-width="10" stroke-linejoin="round"/><circle cx="117" cy="142" r="12" fill="#111"/><circle cx="181" cy="142" r="12" fill="#111"/><path d="M108 194q42-43 84 0" fill="none" stroke="#111" stroke-width="12" stroke-linecap="round"/><path d="M239 94l20-13M244 119l25-3M231 73l9-21" fill="none" stroke="#111" stroke-width="9"/></svg>
